<?xml version="1.0" encoding="UTF-8"?>
<svg id="Layer_1" xmlns="http://www.w3.org/2000/svg" version="1.1" viewBox="0 0 677 89">
  <!-- Generator: Adobe Illustrator 30.4.0, SVG Export Plug-In . SVG Version: 2.1.4 Build 226)  -->
  <defs>
    <style>
      .st0 {
        fill: #0d0d11;
      }
    </style>
  </defs>
  <path class="st0" d="M288,.1c-7.1,0-15.9,3.2-19.4,12.3l-6.1,17.7c-1.6,5.3-.9,10.4,2,14.3,3.1,4.1,8.3,6.6,14,6.6h35.6c3.9,0,6.7,1,8.1,2.9,1.3,1.7,1.5,4.1.6,7.1h0s0,0,0,0l-2.8,8.3c-1.6,4.8-4.4,6.6-10.5,6.6h-62.3l-4.3,13h68.2c8.5,0,19.6-2.6,23.4-15.1l4.2-13c1.7-5.5.8-11.5-2.4-15.8-2.3-3.1-6.9-6.8-15.6-6.8h-34.5c-3.7,0-5.9-.8-7.1-2.4s-1.1-4.1.1-7.6l2.8-8.4h0c1.7-4.2,5.1-6.4,9.7-6.4h63L359,.1h-71Z"/>
  <path class="st0" d="M607.9,0h-15.9l-23,68.7-28-62.3c-1.7-3.8-4.8-6.5-11.3-6.3-5.8.1-9.2,3.1-10.6,7.1l-27.3,81.4c6.5-.1,11.3-1.5,14.6-4.3,3.4-2.8,5.1-6.8,6.4-10.7l18-53.6s22.4,50,26.1,58.1c4,8.8,8.1,10.5,13.9,10.5s9.1-1.9,12.3-11.8L607.9,0Z"/>
  <path class="st0" d="M165.6,83.4L225.4,0h-18.6l-43.9,62.9,2.7,20.5Z"/>
  <path class="st0" d="M145.4,0h-16.2l12.6,79.5c.4,4.8,3.2,7.8,8.2,8.9.8.2,1.7.3,2.5.3,2.3,0,4.9-.7,6-1.1L145.4,0Z"/>
  <path class="st0" d="M498.3,23c1.9-5.9,1.2-11.5-2-15.9-3.2-4.5-8.7-7-15-7h-48.9l-4.3,13h45.7c4.5,0,6.7,1.8,7.8,3.2,1.5,2,1.6,4.5,1.1,6h0s0,0,0,0l-15,44.9h0s0,0,0,0c-2,5.4-4.7,8.5-12.4,8.5h-43c-3.3,0-6.2-1.3-7.8-3.5-1.3-1.8-1.6-4.1-.9-6.5L425.4.2c-9.9.9-18.2,6.8-21,15l-16.9,50.4h0s0,0,0,0c-1.6,4-1.6,10.3,1.9,15.5,2.4,3.5,7.4,7.7,17.5,7.7h51c6.9,0,12.1-1.3,15.9-3.9,3.5-2.4,5.8-5.9,7.5-11.1l17-50.6h0Z"/>
  <path class="st0" d="M112.2,7C108.8,2.4,103.3,0,96.2,0h-44.4l-4.3,13h41.9c3.9,0,6.8,1.2,8.5,3.4,1.6,2.1,1.8,5.1.8,8.6l-14.4,43c-1.7,4.8-6.3,7.6-12.7,7.7H20.3L45.5,0h-15.8L0,88.6h71.6c14.6,0,23.4-5.7,27.6-17.9l15.4-45.9c2-6.6,1.2-13.1-2.3-17.8Z"/>
  <path class="st0" d="M239.6,0l-29.7,88.6c5.8-.1,10.1-1.2,13.3-3.3,3.6-2.4,6-6.1,7.6-11.7h0s0,0,0,0L255.6,0h-15.9Z"/>
  <path class="st0" d="M377,0l-29.7,88.6c5.8-.1,10.1-1.2,13.3-3.3,3.6-2.4,6-6.1,7.6-11.7h0s0,0,0,0L392.9,0h-15.9Z"/>
  <path class="st0" d="M611.3,55.1h18.3l34.3-34.3v34.3h12.1V10.5C676.1,4.7,671.5,0,665.7,0h-45v11.5h34.4l-43.7,43.7Z"/>
</svg>