<?xml version="1.0" encoding="UTF-8"?>
<svg id="Layer_1" xmlns="http://www.w3.org/2000/svg" version="1.1" xmlns:cc="http://creativecommons.org/ns#" xmlns:dc="http://purl.org/dc/elements/1.1/" xmlns:inkscape="http://www.inkscape.org/namespaces/inkscape" xmlns:rdf="http://www.w3.org/1999/02/22-rdf-syntax-ns#" xmlns:sodipodi="http://sodipodi.sourceforge.net/DTD/sodipodi-0.dtd" xmlns:svg="http://www.w3.org/2000/svg" viewBox="0 0 252.39 128.62">
  <!-- Generator: Adobe Illustrator 30.5.0, SVG Export Plug-In . SVG Version: 2.1.4 Build 167)  -->
  <defs>
    <style>
      .st0 {
        fill: #0d0d11;
        fill-rule: evenodd;
      }
    </style>
  </defs>
  <g id="Layer_11" data-name="Layer_1" inkscape:version="0.92.2 (5c3e80d, 2017-08-06)" sodipodi:docname="Hyundai.svg">
    <sodipodi:namedview id="namedview835" bordercolor="#666666" borderopacity="1" gridtolerance="10" guidetolerance="10" inkscape:current-layer="Layer_1" inkscape:cx="561.61885" inkscape:cy="-53.207781" inkscape:pageopacity="0" inkscape:pageshadow="2" inkscape:window-height="705" inkscape:window-maximized="1" inkscape:window-width="1366" inkscape:window-x="-8" inkscape:window-y="-8" inkscape:zoom="0.59615285" objecttolerance="10" pagecolor="#ffffff" showgrid="false"/>
    <g id="g832">
      <path id="path830" class="st0" d="M152.61,79.17c1.92,9.93-3.28,18.18-7.61,26.19-4.8,7.45-12.73,13.85-22.26,12.89-21.39-.32-42.29-3.6-61.67-9.45-.88-.24-1.76-.8-2.24-1.6-.4-1.12.16-2.16.96-2.88,17.7-14.34,38.76-20.98,59.59-27.95,7.77-2.24,16.02-4.65,24.75-3.52,3.6.48,7.2,2.97,8.49,6.33h0ZM225.58,36.73c9.93,8.17,18.9,19.3,15.86,32.76-4.97,19.86-26.59,30.43-43.81,37.16-9.37,3.12-18.82,6.33-29.07,7.29-.64-.08-1.68.08-1.84-.88l.24-1.12c14.58-16.42,25.63-34.84,35.32-53.5,4.48-8.41,8.65-17.06,12.49-25.55.56-.64,1.12-.96,1.76-1.2,3.6.32,6.17,3.12,9.05,5.04h0ZM85.82,15.58l-.32,1.2c-21.06,23.95-34.92,51.74-48.05,79.37-2.56,2.4-5.05-.8-7.37-1.84-11.69-7.69-22.27-20.1-19.22-34.84,4.88-19.22,24.67-29.47,41.17-36.44,9.77-3.68,19.94-6.65,30.67-8.33,1.12,0,2.56-.16,3.12.88ZM190.34,19.43c1.2.64,2.64.88,3.36,2.08.64,1.36-.64,2.24-1.36,3.12-16.58,12.97-35.56,20.18-54.94,26.51-9.85,2.4-19.78,6.73-30.76,4.33-2.56-.64-4.88-2.32-6.33-4.81-2.72-7.53.96-15.38,4.16-21.94,4.24-8.25,11.78-17.94,22.19-18.1,22.43-.16,43.57,3.2,63.67,8.81h.01ZM218.05,20.07c16.98,9.29,36.2,25.63,34.2,47.41-2.32,20.18-21.14,34.28-37.96,42.77-49.1,23.47-118.05,24.19-168.75,3.68-17.14-7.13-36.36-19.38-43.57-37.8-5.53-15.14,1.2-30.91,12.5-41.41C38.08,13.26,68.19,5.89,99.19,1.65c33.64-4.09,69.04-.48,99.15,9.85,6.73,2.48,13.38,5.21,19.7,8.57h0Z" inkscape:connector-curvature="0"/>
    </g>
  </g>
</svg>