<?xml version="1.0" encoding="UTF-8"?>
<svg id="logo_kia_black" xmlns="http://www.w3.org/2000/svg" version="1.1" viewBox="0 0 100.01 23.53">
  <!-- Generator: Adobe Illustrator 30.5.0, SVG Export Plug-In . SVG Version: 2.1.4 Build 167)  -->
  <defs>
    <style>
      .st0 {
        fill: #0d0d11;
      }
    </style>
  </defs>
  <path class="st0" d="M58.02,20.83c0,.19.06.3.17.3.09-.01.17-.05.24-.1L89.6.8c.53-.37,1.16-.56,1.8-.54h6.85c1.05,0,1.76.7,1.76,1.75v13.08c0,1.58-.35,2.5-1.75,3.34l-8.31,5c-.08.06-.18.09-.28.1-.1,0-.2-.08-.2-.37V7.9c0-.18-.05-.3-.17-.3-.09.01-.17.04-.24.1l-22.78,14.8c-.52.35-1.13.54-1.75.53h-15.1c-1.06,0-1.76-.7-1.76-1.76V2.42c0-.14-.06-.27-.18-.27-.09,0-.17.05-.24.1l-15.03,9.02c-.15.1-.19.17-.19.24,0,.06.03.12.13.23l10.74,10.73c.14.14.24.25.24.37,0,.1-.16.18-.35.18h-9.7c-.76,0-1.35-.11-1.76-.52l-6.51-6.5c-.05-.06-.12-.1-.2-.1-.07,0-.14.02-.2.06l-10.88,6.54c-.66.4-1.11.51-1.76.51H1.77c-1.07.01-1.77-.7-1.77-1.75v-12.83c0-1.59.35-2.5,1.76-3.34L10.12.07c.07-.04.14-.07.22-.07.13,0,.2.13.2.42v17.18c0,.18.04.26.17.26.09-.01.17-.05.25-.1L39.2.77c.54-.37,1.2-.55,1.86-.52h15.2c1.05,0,1.76.7,1.76,1.75v18.83h0Z"/>
</svg>