<?xml version="1.0" encoding="UTF-8"?>
<svg id="Layer_1" xmlns="http://www.w3.org/2000/svg" version="1.1" viewBox="0 0 255.45 255.46">
  <!-- Generator: Adobe Illustrator 30.5.0, SVG Export Plug-In . SVG Version: 2.1.4 Build 167)  -->
  <defs>
    <style>
      .st0 {
        fill: #0d0d11;
      }
    </style>
  </defs>
  <path class="st0" d="M218.04,37.41c-49.88-49.88-130.76-49.89-180.63,0-49.88,49.88-49.88,130.76,0,180.63,49.88,49.88,130.76,49.89,180.63,0h0c49.88-49.88,49.88-130.76,0-180.63ZM158.99,181.48h-26.1v.06h-9.67v-107.76h9.65v98.07h26.1l.02,9.62h0ZM128.3,232.66c-58.23,0-105.46-46.93-105.46-104.9S70.05,22.86,128.29,22.86c1.54,0,3.07.03,4.59.09v9.55c-1.52-.07-3.05-.1-4.58-.1-52.93,0-95.86,42.69-95.86,95.35s42.92,95.36,95.86,95.36,93.54-40.39,95.77-91.07v-.27h-64.95v-9.62h74.47c.1,1.86.15,3.73.15,5.61,0,57.94-47.22,104.9-105.45,104.9h.01ZM88.98,102.81h0c-1.94,0-3.86-.37-5.66-1.11-1.79-.74-3.43-1.82-4.8-3.19-1.38-1.37-2.47-2.99-3.22-4.79-.75-1.79-1.13-3.71-1.14-5.65,0-2.91.86-5.76,2.48-8.18s3.91-4.31,6.6-5.43c2.69-1.12,5.65-1.41,8.51-.85,2.86.56,5.48,1.96,7.55,4.01,2.06,2.05,3.47,4.67,4.05,7.53.58,2.85.3,5.82-.81,8.51-1.1,2.69-2.98,5-5.4,6.63-2.41,1.63-5.26,2.51-8.17,2.52h0Z"/>
</svg>