<?xml version="1.0" encoding="UTF-8"?>
<svg id="Layer_1" data-name="Layer 1" xmlns="http://www.w3.org/2000/svg" version="1.1" viewBox="0 0 357 357">
  <defs>
    <style>
      .cls-1 {
        fill: #000;
        stroke-width: 0px;
      }
    </style>
  </defs>
  <circle class="cls-1" cx="130" cy="10" r="6"/>
  <circle class="cls-1" cx="154" cy="10" r="6"/>
  <circle class="cls-1" cx="166" cy="10" r="6"/>
  <circle class="cls-1" cx="178" cy="10" r="6"/>
  <circle class="cls-1" cx="190" cy="10" r="6"/>
  <circle class="cls-1" cx="226" cy="10" r="6"/>
  <circle class="cls-1" cx="238" cy="10" r="6"/>
  <circle class="cls-1" cx="250" cy="10" r="6"/>
  <circle class="cls-1" cx="118" cy="22" r="6"/>
  <circle class="cls-1" cx="142" cy="22" r="6"/>
  <circle class="cls-1" cx="154" cy="22" r="6"/>
  <circle class="cls-1" cx="166" cy="22" r="6"/>
  <circle class="cls-1" cx="178" cy="22" r="6"/>
  <circle class="cls-1" cx="190" cy="22" r="6"/>
  <circle class="cls-1" cx="202" cy="22" r="6"/>
  <circle class="cls-1" cx="214" cy="22" r="6"/>
  <circle class="cls-1" cx="238" cy="22" r="6"/>
  <circle class="cls-1" cx="106" cy="34" r="6"/>
  <circle class="cls-1" cx="154" cy="34" r="6"/>
  <circle class="cls-1" cx="166" cy="34" r="6"/>
  <circle class="cls-1" cx="190" cy="34" r="6"/>
  <circle class="cls-1" cx="226" cy="34" r="6"/>
  <circle class="cls-1" cx="238" cy="34" r="6"/>
  <circle class="cls-1" cx="106" cy="46" r="6"/>
  <circle class="cls-1" cx="118" cy="46" r="6"/>
  <circle class="cls-1" cx="142" cy="46" r="6"/>
  <circle class="cls-1" cx="178" cy="46" r="6"/>
  <circle class="cls-1" cx="190" cy="46" r="6"/>
  <circle class="cls-1" cx="214" cy="46" r="6"/>
  <circle class="cls-1" cx="226" cy="46" r="6"/>
  <circle class="cls-1" cx="106" cy="58" r="6"/>
  <circle class="cls-1" cx="118" cy="58" r="6"/>
  <circle class="cls-1" cx="142" cy="58" r="6"/>
  <circle class="cls-1" cx="190" cy="58" r="6"/>
  <circle class="cls-1" cx="202" cy="58" r="6"/>
  <circle class="cls-1" cx="238" cy="58" r="6"/>
  <circle class="cls-1" cx="106" cy="70" r="6"/>
  <circle class="cls-1" cx="130" cy="70" r="6"/>
  <circle class="cls-1" cx="154" cy="70" r="6"/>
  <circle class="cls-1" cx="214" cy="70" r="6"/>
  <circle class="cls-1" cx="250" cy="70" r="6"/>
  <circle class="cls-1" cx="106" cy="82" r="6"/>
  <circle class="cls-1" cx="130" cy="82" r="6"/>
  <circle class="cls-1" cx="154" cy="82" r="6"/>
  <circle class="cls-1" cx="178" cy="82" r="6"/>
  <circle class="cls-1" cx="202" cy="82" r="6"/>
  <circle class="cls-1" cx="226" cy="82" r="6"/>
  <circle class="cls-1" cx="250" cy="82" r="6"/>
  <circle class="cls-1" cx="106" cy="94" r="6"/>
  <circle class="cls-1" cx="118" cy="94" r="6"/>
  <circle class="cls-1" cx="130" cy="94" r="6"/>
  <circle class="cls-1" cx="142" cy="94" r="6"/>
  <circle class="cls-1" cx="178" cy="94" r="6"/>
  <circle class="cls-1" cx="202" cy="94" r="6"/>
  <circle class="cls-1" cx="214" cy="94" r="6"/>
  <circle class="cls-1" cx="226" cy="94" r="6"/>
  <circle class="cls-1" cx="238" cy="94" r="6"/>
  <circle class="cls-1" cx="250" cy="94" r="6"/>
  <circle class="cls-1" cx="10" cy="106" r="6"/>
  <circle class="cls-1" cx="34" cy="106" r="6"/>
  <circle class="cls-1" cx="46" cy="106" r="6"/>
  <circle class="cls-1" cx="58" cy="106" r="6"/>
  <circle class="cls-1" cx="70" cy="106" r="6"/>
  <circle class="cls-1" cx="82" cy="106" r="6"/>
  <circle class="cls-1" cx="130" cy="106" r="6"/>
  <circle class="cls-1" cx="202" cy="106" r="6"/>
  <circle class="cls-1" cx="214" cy="106" r="6"/>
  <circle class="cls-1" cx="250" cy="106" r="6"/>
  <circle class="cls-1" cx="274" cy="106" r="6"/>
  <circle class="cls-1" cx="286" cy="106" r="6"/>
  <circle class="cls-1" cx="298" cy="106" r="6"/>
  <circle class="cls-1" cx="310" cy="106" r="6"/>
  <circle class="cls-1" cx="322" cy="106" r="6"/>
  <circle class="cls-1" cx="22" cy="118" r="6"/>
  <circle class="cls-1" cx="58" cy="118" r="6"/>
  <circle class="cls-1" cx="70" cy="118" r="6"/>
  <circle class="cls-1" cx="94" cy="118" r="6"/>
  <circle class="cls-1" cx="106" cy="118" r="6"/>
  <circle class="cls-1" cx="130" cy="118" r="6"/>
  <circle class="cls-1" cx="166" cy="118" r="6"/>
  <circle class="cls-1" cx="178" cy="118" r="6"/>
  <circle class="cls-1" cx="190" cy="118" r="6"/>
  <circle class="cls-1" cx="250" cy="118" r="6"/>
  <circle class="cls-1" cx="274" cy="118" r="6"/>
  <circle class="cls-1" cx="298" cy="118" r="6"/>
  <circle class="cls-1" cx="310" cy="118" r="6"/>
  <circle class="cls-1" cx="334" cy="118" r="6"/>
  <circle class="cls-1" cx="70" cy="130" r="6"/>
  <circle class="cls-1" cx="82" cy="130" r="6"/>
  <circle class="cls-1" cx="94" cy="130" r="6"/>
  <circle class="cls-1" cx="106" cy="130" r="6"/>
  <circle class="cls-1" cx="166" cy="130" r="6"/>
  <circle class="cls-1" cx="178" cy="130" r="6"/>
  <circle class="cls-1" cx="190" cy="130" r="6"/>
  <circle class="cls-1" cx="202" cy="130" r="6"/>
  <circle class="cls-1" cx="214" cy="130" r="6"/>
  <circle class="cls-1" cx="286" cy="130" r="6"/>
  <circle class="cls-1" cx="310" cy="130" r="6"/>
  <circle class="cls-1" cx="322" cy="130" r="6"/>
  <circle class="cls-1" cx="22" cy="142" r="6"/>
  <circle class="cls-1" cx="70" cy="142" r="6"/>
  <circle class="cls-1" cx="94" cy="142" r="6"/>
  <circle class="cls-1" cx="118" cy="142" r="6"/>
  <circle class="cls-1" cx="166" cy="142" r="6"/>
  <circle class="cls-1" cx="190" cy="142" r="6"/>
  <circle class="cls-1" cx="214" cy="142" r="6"/>
  <circle class="cls-1" cx="226" cy="142" r="6"/>
  <circle class="cls-1" cx="238" cy="142" r="6"/>
  <circle class="cls-1" cx="250" cy="142" r="6"/>
  <circle class="cls-1" cx="262" cy="142" r="6"/>
  <circle class="cls-1" cx="274" cy="142" r="6"/>
  <circle class="cls-1" cx="286" cy="142" r="6"/>
  <circle class="cls-1" cx="298" cy="142" r="6"/>
  <circle class="cls-1" cx="310" cy="142" r="6"/>
  <circle class="cls-1" cx="346" cy="142" r="6"/>
  <circle class="cls-1" cx="10" cy="154" r="6"/>
  <circle class="cls-1" cx="82" cy="154" r="6"/>
  <circle class="cls-1" cx="106" cy="154" r="6"/>
  <circle class="cls-1" cx="118" cy="154" r="6"/>
  <circle class="cls-1" cx="130" cy="154" r="6"/>
  <circle class="cls-1" cx="142" cy="154" r="6"/>
  <circle class="cls-1" cx="178" cy="154" r="6"/>
  <circle class="cls-1" cx="190" cy="154" r="6"/>
  <circle class="cls-1" cx="262" cy="154" r="6"/>
  <circle class="cls-1" cx="274" cy="154" r="6"/>
  <circle class="cls-1" cx="10" cy="166" r="6"/>
  <circle class="cls-1" cx="22" cy="166" r="6"/>
  <circle class="cls-1" cx="46" cy="166" r="6"/>
  <circle class="cls-1" cx="58" cy="166" r="6"/>
  <circle class="cls-1" cx="70" cy="166" r="6"/>
  <circle class="cls-1" cx="130" cy="166" r="6"/>
  <circle class="cls-1" cx="142" cy="166" r="6"/>
  <circle class="cls-1" cx="154" cy="166" r="6"/>
  <circle class="cls-1" cx="190" cy="166" r="6"/>
  <circle class="cls-1" cx="202" cy="166" r="6"/>
  <circle class="cls-1" cx="238" cy="166" r="6"/>
  <circle class="cls-1" cx="250" cy="166" r="6"/>
  <circle class="cls-1" cx="286" cy="166" r="6"/>
  <circle class="cls-1" cx="310" cy="166" r="6"/>
  <circle class="cls-1" cx="334" cy="166" r="6"/>
  <circle class="cls-1" cx="22" cy="178" r="6"/>
  <circle class="cls-1" cx="46" cy="178" r="6"/>
  <circle class="cls-1" cx="82" cy="178" r="6"/>
  <circle class="cls-1" cx="94" cy="178" r="6"/>
  <circle class="cls-1" cx="118" cy="178" r="6"/>
  <circle class="cls-1" cx="142" cy="178" r="6"/>
  <circle class="cls-1" cx="154" cy="178" r="6"/>
  <circle class="cls-1" cx="214" cy="178" r="6"/>
  <circle class="cls-1" cx="226" cy="178" r="6"/>
  <circle class="cls-1" cx="250" cy="178" r="6"/>
  <circle class="cls-1" cx="310" cy="178" r="6"/>
  <circle class="cls-1" cx="322" cy="178" r="6"/>
  <circle class="cls-1" cx="334" cy="178" r="6"/>
  <circle class="cls-1" cx="346" cy="178" r="6"/>
  <circle class="cls-1" cx="46" cy="190" r="6"/>
  <circle class="cls-1" cx="58" cy="190" r="6"/>
  <circle class="cls-1" cx="94" cy="190" r="6"/>
  <circle class="cls-1" cx="106" cy="190" r="6"/>
  <circle class="cls-1" cx="142" cy="190" r="6"/>
  <circle class="cls-1" cx="154" cy="190" r="6"/>
  <circle class="cls-1" cx="178" cy="190" r="6"/>
  <circle class="cls-1" cx="202" cy="190" r="6"/>
  <circle class="cls-1" cx="214" cy="190" r="6"/>
  <circle class="cls-1" cx="226" cy="190" r="6"/>
  <circle class="cls-1" cx="238" cy="190" r="6"/>
  <circle class="cls-1" cx="250" cy="190" r="6"/>
  <circle class="cls-1" cx="274" cy="190" r="6"/>
  <circle class="cls-1" cx="298" cy="190" r="6"/>
  <circle class="cls-1" cx="334" cy="190" r="6"/>
  <circle class="cls-1" cx="346" cy="190" r="6"/>
  <circle class="cls-1" cx="34" cy="202" r="6"/>
  <circle class="cls-1" cx="46" cy="202" r="6"/>
  <circle class="cls-1" cx="58" cy="202" r="6"/>
  <circle class="cls-1" cx="82" cy="202" r="6"/>
  <circle class="cls-1" cx="118" cy="202" r="6"/>
  <circle class="cls-1" cx="130" cy="202" r="6"/>
  <circle class="cls-1" cx="142" cy="202" r="6"/>
  <circle class="cls-1" cx="214" cy="202" r="6"/>
  <circle class="cls-1" cx="250" cy="202" r="6"/>
  <circle class="cls-1" cx="286" cy="202" r="6"/>
  <circle class="cls-1" cx="298" cy="202" r="6"/>
  <circle class="cls-1" cx="10" cy="214" r="6"/>
  <circle class="cls-1" cx="22" cy="214" r="6"/>
  <circle class="cls-1" cx="46" cy="214" r="6"/>
  <circle class="cls-1" cx="70" cy="214" r="6"/>
  <circle class="cls-1" cx="166" cy="214" r="6"/>
  <circle class="cls-1" cx="178" cy="214" r="6"/>
  <circle class="cls-1" cx="190" cy="214" r="6"/>
  <circle class="cls-1" cx="262" cy="214" r="6"/>
  <circle class="cls-1" cx="286" cy="214" r="6"/>
  <circle class="cls-1" cx="310" cy="214" r="6"/>
  <circle class="cls-1" cx="334" cy="214" r="6"/>
  <circle class="cls-1" cx="346" cy="214" r="6"/>
  <circle class="cls-1" cx="10" cy="226" r="6"/>
  <circle class="cls-1" cx="46" cy="226" r="6"/>
  <circle class="cls-1" cx="58" cy="226" r="6"/>
  <circle class="cls-1" cx="70" cy="226" r="6"/>
  <circle class="cls-1" cx="82" cy="226" r="6"/>
  <circle class="cls-1" cx="118" cy="226" r="6"/>
  <circle class="cls-1" cx="142" cy="226" r="6"/>
  <circle class="cls-1" cx="154" cy="226" r="6"/>
  <circle class="cls-1" cx="166" cy="226" r="6"/>
  <circle class="cls-1" cx="178" cy="226" r="6"/>
  <circle class="cls-1" cx="190" cy="226" r="6"/>
  <circle class="cls-1" cx="214" cy="226" r="6"/>
  <circle class="cls-1" cx="226" cy="226" r="6"/>
  <circle class="cls-1" cx="310" cy="226" r="6"/>
  <circle class="cls-1" cx="322" cy="226" r="6"/>
  <circle class="cls-1" cx="346" cy="226" r="6"/>
  <circle class="cls-1" cx="10" cy="238" r="6"/>
  <circle class="cls-1" cx="46" cy="238" r="6"/>
  <circle class="cls-1" cx="142" cy="238" r="6"/>
  <circle class="cls-1" cx="166" cy="238" r="6"/>
  <circle class="cls-1" cx="190" cy="238" r="6"/>
  <circle class="cls-1" cx="238" cy="238" r="6"/>
  <circle class="cls-1" cx="250" cy="238" r="6"/>
  <circle class="cls-1" cx="262" cy="238" r="6"/>
  <circle class="cls-1" cx="274" cy="238" r="6"/>
  <circle class="cls-1" cx="286" cy="238" r="6"/>
  <circle class="cls-1" cx="298" cy="238" r="6"/>
  <circle class="cls-1" cx="10" cy="250" r="6"/>
  <circle class="cls-1" cx="34" cy="250" r="6"/>
  <circle class="cls-1" cx="46" cy="250" r="6"/>
  <circle class="cls-1" cx="58" cy="250" r="6"/>
  <circle class="cls-1" cx="82" cy="250" r="6"/>
  <circle class="cls-1" cx="106" cy="250" r="6"/>
  <circle class="cls-1" cx="118" cy="250" r="6"/>
  <circle class="cls-1" cx="130" cy="250" r="6"/>
  <circle class="cls-1" cx="142" cy="250" r="6"/>
  <circle class="cls-1" cx="178" cy="250" r="6"/>
  <circle class="cls-1" cx="190" cy="250" r="6"/>
  <circle class="cls-1" cx="202" cy="250" r="6"/>
  <circle class="cls-1" cx="226" cy="250" r="6"/>
  <circle class="cls-1" cx="250" cy="250" r="6"/>
  <circle class="cls-1" cx="262" cy="250" r="6"/>
  <circle class="cls-1" cx="274" cy="250" r="6"/>
  <circle class="cls-1" cx="286" cy="250" r="6"/>
  <circle class="cls-1" cx="298" cy="250" r="6"/>
  <circle class="cls-1" cx="310" cy="250" r="6"/>
  <circle class="cls-1" cx="322" cy="250" r="6"/>
  <circle class="cls-1" cx="334" cy="250" r="6"/>
  <circle class="cls-1" cx="106" cy="262" r="6"/>
  <circle class="cls-1" cx="130" cy="262" r="6"/>
  <circle class="cls-1" cx="142" cy="262" r="6"/>
  <circle class="cls-1" cx="154" cy="262" r="6"/>
  <circle class="cls-1" cx="202" cy="262" r="6"/>
  <circle class="cls-1" cx="250" cy="262" r="6"/>
  <circle class="cls-1" cx="298" cy="262" r="6"/>
  <circle class="cls-1" cx="334" cy="262" r="6"/>
  <circle class="cls-1" cx="118" cy="274" r="6"/>
  <circle class="cls-1" cx="142" cy="274" r="6"/>
  <circle class="cls-1" cx="154" cy="274" r="6"/>
  <circle class="cls-1" cx="190" cy="274" r="6"/>
  <circle class="cls-1" cx="214" cy="274" r="6"/>
  <circle class="cls-1" cx="238" cy="274" r="6"/>
  <circle class="cls-1" cx="250" cy="274" r="6"/>
  <circle class="cls-1" cx="274" cy="274" r="6"/>
  <circle class="cls-1" cx="298" cy="274" r="6"/>
  <circle class="cls-1" cx="310" cy="274" r="6"/>
  <circle class="cls-1" cx="322" cy="274" r="6"/>
  <circle class="cls-1" cx="106" cy="286" r="6"/>
  <circle class="cls-1" cx="142" cy="286" r="6"/>
  <circle class="cls-1" cx="178" cy="286" r="6"/>
  <circle class="cls-1" cx="202" cy="286" r="6"/>
  <circle class="cls-1" cx="238" cy="286" r="6"/>
  <circle class="cls-1" cx="250" cy="286" r="6"/>
  <circle class="cls-1" cx="298" cy="286" r="6"/>
  <circle class="cls-1" cx="322" cy="286" r="6"/>
  <circle class="cls-1" cx="334" cy="286" r="6"/>
  <circle class="cls-1" cx="346" cy="286" r="6"/>
  <circle class="cls-1" cx="106" cy="298" r="6"/>
  <circle class="cls-1" cx="142" cy="298" r="6"/>
  <circle class="cls-1" cx="154" cy="298" r="6"/>
  <circle class="cls-1" cx="190" cy="298" r="6"/>
  <circle class="cls-1" cx="226" cy="298" r="6"/>
  <circle class="cls-1" cx="238" cy="298" r="6"/>
  <circle class="cls-1" cx="250" cy="298" r="6"/>
  <circle class="cls-1" cx="262" cy="298" r="6"/>
  <circle class="cls-1" cx="274" cy="298" r="6"/>
  <circle class="cls-1" cx="286" cy="298" r="6"/>
  <circle class="cls-1" cx="298" cy="298" r="6"/>
  <circle class="cls-1" cx="322" cy="298" r="6"/>
  <circle class="cls-1" cx="334" cy="298" r="6"/>
  <circle class="cls-1" cx="346" cy="298" r="6"/>
  <circle class="cls-1" cx="106" cy="310" r="6"/>
  <circle class="cls-1" cx="130" cy="310" r="6"/>
  <circle class="cls-1" cx="166" cy="310" r="6"/>
  <circle class="cls-1" cx="178" cy="310" r="6"/>
  <circle class="cls-1" cx="202" cy="310" r="6"/>
  <circle class="cls-1" cx="250" cy="310" r="6"/>
  <circle class="cls-1" cx="286" cy="310" r="6"/>
  <circle class="cls-1" cx="106" cy="322" r="6"/>
  <circle class="cls-1" cx="118" cy="322" r="6"/>
  <circle class="cls-1" cx="130" cy="322" r="6"/>
  <circle class="cls-1" cx="154" cy="322" r="6"/>
  <circle class="cls-1" cx="178" cy="322" r="6"/>
  <circle class="cls-1" cx="190" cy="322" r="6"/>
  <circle class="cls-1" cx="214" cy="322" r="6"/>
  <circle class="cls-1" cx="238" cy="322" r="6"/>
  <circle class="cls-1" cx="286" cy="322" r="6"/>
  <circle class="cls-1" cx="322" cy="322" r="6"/>
  <circle class="cls-1" cx="334" cy="322" r="6"/>
  <circle class="cls-1" cx="142" cy="334" r="6"/>
  <circle class="cls-1" cx="154" cy="334" r="6"/>
  <circle class="cls-1" cx="190" cy="334" r="6"/>
  <circle class="cls-1" cx="202" cy="334" r="6"/>
  <circle class="cls-1" cx="214" cy="334" r="6"/>
  <circle class="cls-1" cx="226" cy="334" r="6"/>
  <circle class="cls-1" cx="250" cy="334" r="6"/>
  <circle class="cls-1" cx="262" cy="334" r="6"/>
  <circle class="cls-1" cx="310" cy="334" r="6"/>
  <circle class="cls-1" cx="322" cy="334" r="6"/>
  <circle class="cls-1" cx="346" cy="334" r="6"/>
  <circle class="cls-1" cx="106" cy="346" r="6"/>
  <circle class="cls-1" cx="142" cy="346" r="6"/>
  <circle class="cls-1" cx="178" cy="346" r="6"/>
  <circle class="cls-1" cx="190" cy="346" r="6"/>
  <circle class="cls-1" cx="214" cy="346" r="6"/>
  <circle class="cls-1" cx="226" cy="346" r="6"/>
  <circle class="cls-1" cx="238" cy="346" r="6"/>
  <circle class="cls-1" cx="250" cy="346" r="6"/>
  <circle class="cls-1" cx="262" cy="346" r="6"/>
  <circle class="cls-1" cx="274" cy="346" r="6"/>
  <circle class="cls-1" cx="298" cy="346" r="6"/>
  <circle class="cls-1" cx="310" cy="346" r="6"/>
  <circle class="cls-1" cx="322" cy="346" r="6"/>
  <path class="cls-1" d="M67,4H25C13.4,4,4,13.4,4,25v42c0,11.6,9.4,21,21,21h42c11.6,0,21-9.4,21-21V25c0-11.6-9.4-21-21-21ZM76,61c0,8.3-6.7,15-15,15h-30c-8.3,0-15-6.7-15-15v-30c0-8.3,6.7-15,15-15h30c8.3,0,15,6.7,15,15v30Z"/>
  <rect class="cls-1" x="28" y="28" width="36" height="36" rx="9" ry="9"/>
  <path class="cls-1" d="M331,4h-42c-11.6,0-21,9.4-21,21v42c0,11.6,9.4,21,21,21h42c11.6,0,21-9.4,21-21V25c0-11.6-9.4-21-21-21ZM340,61c0,8.3-6.7,15-15,15h-30c-8.3,0-15-6.7-15-15v-30c0-8.3,6.7-15,15-15h30c8.3,0,15,6.7,15,15v30Z"/>
  <rect class="cls-1" x="292" y="28" width="36" height="36" rx="9" ry="9"/>
  <path class="cls-1" d="M67,268H25c-11.6,0-21,9.4-21,21v42c0,11.6,9.4,21,21,21h42c11.6,0,21-9.4,21-21v-42c0-11.6-9.4-21-21-21ZM76,325c0,8.3-6.7,15-15,15h-30c-8.3,0-15-6.7-15-15v-30c0-8.3,6.7-15,15-15h30c8.3,0,15,6.7,15,15v30Z"/>
  <rect class="cls-1" x="28" y="292" width="36" height="36" rx="9" ry="9"/>
</svg>